<svg width="20" height="16" viewBox="0 0 20 16" fill="none" xmlns="http://www.w3.org/2000/svg">
<path d="M4 12H12V11.45C12 10.7167 11.6333 10.125 10.9 9.675C10.1667 9.225 9.2 9 8 9C6.8 9 5.83333 9.225 5.1 9.675C4.36667 10.125 4 10.7167 4 11.45V12ZM8 8C8.55 8 9.02083 7.80417 9.4125 7.4125C9.80417 7.02083 10 6.55 10 6C10 5.45 9.80417 4.97917 9.4125 4.5875C9.02083 4.19583 8.55 4 8 4C7.45 4 6.97917 4.19583 6.5875 4.5875C6.19583 4.97917 6 5.45 6 6C6 6.55 6.19583 7.02083 6.5875 7.4125C6.97917 7.80417 7.45 8 8 8ZM2 16C1.45 16 0.979167 15.8042 0.5875 15.4125C0.195833 15.0208 0 14.55 0 14V2C0 1.45 0.195833 0.979167 0.5875 0.5875C0.979167 0.195833 1.45 0 2 0H14C14.55 0 15.0208 0.195833 15.4125 0.5875C15.8042 0.979167 16 1.45 16 2V6.5L20 2.5V13.5L16 9.5V14C16 14.55 15.8042 15.0208 15.4125 15.4125C15.0208 15.8042 14.55 16 14 16H2Z" fill="#0094CA"/>
</svg>
