<svg width="16" height="16" viewBox="0 0 16 16" fill="none" xmlns="http://www.w3.org/2000/svg">
<path d="M7.51875 15.0371C7.51875 15.0371 7.46875 15.0371 7.36875 15.0371C7.26875 15.0371 7.12813 14.9996 6.94688 14.9246C6.76563 14.8496 6.6 14.7434 6.45 14.6059L0.43125 8.58711C0.29375 8.43711 0.1875 8.27148 0.1125 8.09023C0.0375 7.90898 0 7.71836 0 7.51836C0 7.31836 0.0375 7.12461 0.1125 6.93711C0.1875 6.74961 0.29375 6.58711 0.43125 6.44961L6.45 0.430859C6.6 0.280859 6.76563 0.171484 6.94688 0.102734C7.12813 0.0339842 7.31875 -0.000391006 7.51875 -0.000391006C7.71875 -0.000391006 7.9125 0.0339842 8.1 0.102734C8.2875 0.171484 8.45 0.280859 8.5875 0.430859L14.6063 6.44961C14.7563 6.58711 14.8656 6.74961 14.9344 6.93711C15.0031 7.12461 15.0375 7.31836 15.0375 7.51836C15.0375 7.71836 15.0031 7.90898 14.9344 8.09023C14.8656 8.27148 14.7563 8.43711 14.6063 8.58711L8.5875 14.6059C8.45 14.7434 8.2875 14.8496 8.1 14.9246C7.9125 14.9996 7.71875 15.0371 7.51875 15.0371ZM7.51875 13.5371L13.5375 7.51836L7.51875 1.49961L1.5 7.51836L7.51875 13.5371ZM6.76875 8.26836H8.26875V3.76836H6.76875V8.26836ZM7.51875 10.5184C7.51875 10.5184 7.57188 10.5184 7.67813 10.5184C7.78438 10.5184 7.90938 10.4465 8.05313 10.3027C8.19688 10.159 8.26875 9.98086 8.26875 9.76836C8.26875 9.55586 8.19688 9.37773 8.05313 9.23398C7.90938 9.09023 7.73125 9.01836 7.51875 9.01836C7.30625 9.01836 7.12813 9.09023 6.98438 9.23398C6.84063 9.37773 6.76875 9.55586 6.76875 9.76836C6.76875 9.98086 6.84063 10.159 6.98438 10.3027C7.12813 10.4465 7.30625 10.5184 7.51875 10.5184Z" fill="#EA580C"/>
</svg>
