<svg width="71" height="88" viewBox="0 0 71 88" fill="none" xmlns="http://www.w3.org/2000/svg">
<path d="M6.95124 87.9877C6.31796 87.6589 5.64149 87.4158 5.08017 87.0012C3.89995 86.1291 3.35303 84.8709 3.35303 83.4269C3.35303 75.9208 3.35303 68.4147 3.35303 60.9086C3.35303 59.9078 3.85678 59.3073 4.64838 59.3073C5.43999 59.3073 5.92935 59.9078 5.92935 60.9086C5.92935 68.2145 5.92935 75.5205 5.92935 82.8264C5.92935 84.8137 6.54824 85.4285 8.57764 85.4285C26.5399 85.4285 44.5022 85.4285 62.4645 85.4285C64.4363 85.4285 65.0696 84.8137 65.0696 82.8693C65.0696 71.3314 65.0696 59.7791 65.0696 48.2412C65.0696 46.6399 65.3431 46.3539 66.9551 46.2825C67.9194 46.2396 68.3656 45.8106 68.38 44.8384C68.38 42.6366 68.38 40.4206 68.38 38.2188C68.38 37.2037 67.9338 36.789 66.8975 36.7461C65.487 36.689 65.1128 36.3172 65.0552 34.9447C64.7242 26.352 61.0252 19.5608 53.9008 14.6568C48.4459 10.9109 42.9478 7.23648 37.4641 3.54777C37.2914 3.4334 37.0899 3.33331 36.7733 3.16175C36.7733 4.50569 36.7445 5.73526 36.802 6.95054C36.802 7.17929 37.1187 7.46524 37.3634 7.62251C41.9979 10.7679 46.618 13.9419 51.3101 17.0301C56.5059 20.4472 60.0033 25.0509 61.126 31.1845C61.6009 33.7437 61.4714 36.4316 61.6153 39.048C61.6297 39.434 61.6153 39.8344 61.6153 40.3348C62.3494 40.3348 63.0114 40.3205 63.6591 40.3348C64.5515 40.3634 65.084 40.8638 65.0696 41.6215C65.0696 42.3364 64.5515 42.8225 63.7023 42.894C63.3569 42.9226 63.0114 42.894 62.666 42.894C62.3494 42.894 62.0327 42.894 61.5866 42.894V44.0235C61.5866 55.9903 61.5866 67.9715 61.5866 79.9383C61.5866 81.5968 61.2123 81.9686 59.5716 81.9686C43.5091 81.9686 27.4467 81.9686 11.3842 81.9686C9.72906 81.9686 9.36924 81.5968 9.36924 79.9383C9.36924 67.9715 9.36924 55.9903 9.36924 44.0235V42.8797C8.67839 42.8797 8.05949 42.894 7.4406 42.8797C6.47628 42.8511 5.91496 42.3793 5.90056 41.6215C5.88617 40.8209 6.46188 40.3348 7.46939 40.3205C8.07388 40.3205 8.66399 40.3205 9.35485 40.3205C9.35485 39.0051 9.35485 37.7899 9.35485 36.5603C9.36924 33.8581 9.58514 31.1845 10.4631 28.5967C12.0607 23.9072 14.9681 20.2042 19.0844 17.4305C23.8773 14.1993 28.6557 10.9538 33.4629 7.73689C33.981 7.39375 34.1825 7.02202 34.1538 6.40724C34.1106 5.37783 34.1538 4.34842 34.1538 3.24753C33.9379 3.33331 33.7939 3.34761 33.6932 3.4191C27.9073 7.33656 22.035 11.1397 16.3498 15.1858C9.70028 19.9182 6.31796 26.5093 5.91496 34.6158C5.90056 34.9876 5.91496 35.3736 5.81421 35.7167C5.61271 36.4602 5.05138 36.7176 4.30296 36.7319C2.92124 36.7461 2.5902 37.1179 2.5902 38.4904C2.5902 40.5206 2.5902 42.5509 2.5902 44.5954C2.5902 45.8535 2.96442 46.2396 4.2166 46.2682C5.51196 46.3111 5.90056 46.6971 5.90056 47.9981C5.90056 50.0569 5.90056 52.1158 5.90056 54.1889C5.90056 55.204 5.4256 55.7902 4.63399 55.8188C3.82799 55.8331 3.30985 55.204 3.30985 54.1603C3.30985 52.416 3.30985 50.6717 3.30985 49.1991C2.33113 48.4699 1.40999 47.9838 0.762311 47.2404C0.301739 46.6971 0.0570603 45.8392 0.0282746 45.1101C-0.0580826 42.7081 -0.0292969 40.3062 -0.000511149 37.8899C0.0138817 36.2743 1.02138 34.8589 2.5902 34.4014C3.26667 34.2012 3.38181 33.8438 3.42499 33.2576C4.10146 25.2082 7.61332 18.6028 14.0469 13.6846C17.53 11.011 21.2865 8.69481 24.9279 6.22137C27.5186 4.4628 30.1238 2.71853 32.7145 0.95996C34.4704 -0.241015 36.2551 -0.355393 38.0254 0.845581C44.1712 4.9918 50.4177 9.02365 56.4195 13.3557C63.1266 18.2025 66.7392 24.908 67.4732 33.1289C67.5308 33.8295 67.7035 34.1869 68.452 34.4443C69.992 34.9876 70.8699 36.2029 70.9131 37.847C70.9707 40.2776 70.9851 42.7224 70.9131 45.153C70.8556 47.1975 69.589 48.3556 67.6172 48.8846V49.914C67.6172 60.7085 67.574 71.5172 67.646 82.3117C67.6603 85.114 66.7536 87.0727 64.0046 88.002H6.95124V87.9877ZM46.2294 44.2665C46.546 43.809 46.8339 43.4802 47.0354 43.1085C47.5391 42.1934 48.2588 41.836 49.3094 41.9218C50.2738 41.9933 51.2525 41.9361 52.2744 41.9361C52.2744 40.8066 52.3175 39.7772 52.2744 38.7621C52.2312 37.8899 52.5478 37.2894 53.2963 36.8462C53.7568 36.5746 54.1742 36.2314 54.678 35.8883C54.1886 35.5309 53.8288 35.2163 53.4114 34.9733C52.5334 34.4729 52.188 33.7723 52.2744 32.7715C52.3463 31.8136 52.2888 30.8414 52.2888 29.7834C51.1086 29.7834 50.0147 29.7548 48.9352 29.7834C48.2012 29.8119 47.6687 29.5403 47.2657 28.9255C46.949 28.4394 46.5892 27.9676 46.2006 27.4529C45.8695 27.9104 45.5817 28.2249 45.3802 28.611C44.8908 29.526 44.1568 29.8834 43.1061 29.7977C42.1418 29.7262 41.1631 29.7834 40.1412 29.7834C40.1412 30.9843 40.1268 32.0709 40.1412 33.1575C40.1556 33.8581 39.8965 34.3585 39.3208 34.7445C38.8027 35.0877 38.3133 35.4737 37.7232 35.8883C38.1981 36.2171 38.5868 36.5317 39.0042 36.7747C39.8965 37.2608 40.2132 37.99 40.1556 38.9765C40.098 39.9345 40.1556 40.9067 40.1556 41.9361C40.9616 41.9361 41.6956 42.0076 42.3865 41.9218C43.9409 41.7216 45.0923 42.1934 45.7544 43.6518C45.8408 43.8519 46.0279 44.0092 46.2294 44.2808V44.2665ZM33.2182 35.874C32.7433 35.5309 32.369 35.202 31.9516 34.959C31.0737 34.4586 30.7426 33.7437 30.8146 32.7429C30.8866 31.785 30.829 30.8128 30.829 29.7691C29.6056 29.7691 28.4974 29.7548 27.3747 29.7691C26.6983 29.7834 26.2233 29.5403 25.8491 28.9827C25.518 28.4823 25.1726 28.0105 24.7696 27.4386C24.4386 27.8961 24.1363 28.2392 23.9204 28.6253C23.4311 29.5117 22.7258 29.8405 21.7183 29.7691C20.754 29.6976 19.7753 29.7548 18.7102 29.7548C18.7102 30.441 18.6382 31.0415 18.7102 31.6277C18.9693 33.4149 18.4367 34.7588 16.724 35.5595C16.5945 35.6167 16.5081 35.731 16.321 35.8883C16.7384 36.1743 17.0838 36.4745 17.4724 36.689C18.4224 37.1894 18.7966 37.9328 18.7102 39.0194C18.6382 39.9773 18.6958 40.9353 18.6958 41.9361C19.8041 41.9361 20.7828 41.9933 21.7615 41.9218C22.7402 41.8503 23.4167 42.2077 23.8916 43.0513C24.1219 43.4659 24.4386 43.8233 24.7552 44.2808C25.0863 43.8233 25.3597 43.4945 25.5756 43.1228C26.0794 42.2077 26.799 41.8503 27.8497 41.9361C28.814 42.0076 29.7927 41.9504 30.8146 41.9504C30.8146 41.164 30.901 40.4777 30.8002 39.8058C30.5699 38.1902 31.1025 37.0178 32.6137 36.3172C32.7864 36.2314 32.9304 36.0885 33.2038 35.8883L33.2182 35.874ZM46.2006 48.8989C46.0279 49.1276 45.7976 49.3421 45.668 49.6137C45.0204 50.9148 43.9841 51.3723 42.5592 51.215C41.782 51.1292 40.976 51.2007 40.1556 51.2007C40.1556 52.3159 40.1124 53.2881 40.1556 54.2604C40.2132 55.204 39.8677 55.8474 39.0761 56.3335C38.6299 56.6051 38.2269 56.9483 37.7664 57.2914C38.2125 57.6059 38.5436 57.8919 38.9178 58.092C39.8533 58.6067 40.2563 59.3359 40.17 60.4225C40.098 61.3518 40.1556 62.2955 40.1556 63.3249C41.1631 63.3249 42.0842 63.382 42.991 63.3106C44.1424 63.2105 44.934 63.6108 45.4665 64.6116C45.6537 64.9691 45.9415 65.2836 46.215 65.6696C46.5172 65.255 46.7763 64.9691 46.949 64.6402C47.4959 63.5965 48.3163 63.1962 49.4965 63.2963C50.4033 63.3678 51.3101 63.3106 52.2888 63.3106C52.2888 62.1096 52.3032 61.023 52.2888 59.9364C52.2744 59.2358 52.5334 58.7354 53.1236 58.3637C53.6417 58.0349 54.1311 57.6631 54.6924 57.2628C54.2462 56.934 53.9152 56.648 53.5409 56.4479C52.5766 55.9188 52.1736 55.1611 52.2744 54.0459C52.3607 53.1166 52.2888 52.1872 52.2888 51.2007C51.7131 51.2007 51.2525 51.1435 50.7919 51.2007C48.8057 51.4867 47.2225 51.0006 46.3445 49.0275C46.3445 48.9989 46.3013 48.9846 46.1862 48.8989H46.2006ZM33.2326 57.2485C32.7576 56.9054 32.369 56.5765 31.9229 56.3192C31.0737 55.8331 30.757 55.1468 30.8146 54.1746C30.8866 53.1881 30.829 52.2015 30.829 51.1721C29.8647 51.1721 29.0155 51.1007 28.1951 51.1864C26.9285 51.3151 26.0074 50.9148 25.4317 49.7567C25.2734 49.4422 25.0143 49.1848 24.7552 48.8274C24.4674 49.242 24.2083 49.5279 24.05 49.8425C23.503 50.8719 22.6826 51.2865 21.5024 51.1864C20.5957 51.1007 19.6889 51.1721 18.7102 51.1721C18.7102 52.3445 18.6814 53.4025 18.7102 54.4462C18.739 55.2183 18.4511 55.7616 17.8035 56.1762C17.2997 56.4907 16.8391 56.8768 16.321 57.2628C16.7672 57.5773 17.127 57.8776 17.53 58.1063C18.4367 58.6067 18.811 59.3359 18.7246 60.3796C18.6526 61.3375 18.7102 62.3098 18.7102 63.3106C19.9336 63.3106 21.0275 63.3106 22.1213 63.3106C22.8122 63.3106 23.3303 63.5536 23.7189 64.1541C24.0356 64.6402 24.3954 65.0977 24.7984 65.641C25.0863 65.2264 25.3453 64.9548 25.518 64.6259C26.065 63.5679 26.8998 63.2105 28.0656 63.3106C28.9723 63.382 29.8791 63.3249 30.8434 63.3249C30.8434 62.3097 30.901 61.409 30.829 60.5369C30.7283 59.4074 31.0737 58.5924 32.11 58.0634C32.4842 57.8776 32.8008 57.5773 33.247 57.2628L33.2326 57.2485ZM33.4629 79.3236H52.2312V72.5466C51.2813 72.5466 50.3889 72.4751 49.5109 72.5609C48.3451 72.6753 47.4959 72.3036 46.9634 71.2456C46.7907 70.9024 46.5172 70.6022 46.2294 70.2019C45.9415 70.6165 45.668 70.9167 45.4953 71.2599C44.9628 72.2607 44.1712 72.661 43.0198 72.5609C42.0986 72.4751 41.1487 72.5466 40.17 72.5466C40.17 73.2901 40.1988 73.8906 40.17 74.4911C40.1268 75.3489 39.5799 75.8636 38.8026 75.835C38.0542 75.8064 37.608 75.306 37.5793 74.4482C37.5649 73.8334 37.5793 73.2186 37.5793 72.6038H33.4773V79.3236H33.4629ZM18.739 79.3236H30.7858V72.5323C30.1381 72.5323 29.5336 72.4608 28.9435 72.5323C27.202 72.7754 25.8347 72.3179 25.0863 70.6165C25.0287 70.5021 24.9135 70.402 24.7696 70.2448C24.4817 70.6451 24.1939 70.9596 23.9924 71.3171C23.4886 72.2607 22.7402 72.6324 21.6607 72.5323C20.6964 72.4465 19.7321 72.518 18.7534 72.518V79.3093L18.739 79.3236ZM36.8164 10.3533C36.8164 11.5972 36.6293 12.7267 36.8884 13.7275C37.0323 14.2708 37.9535 14.5996 38.5292 15.0285C38.7307 15.1858 38.9466 15.3431 39.1625 15.4717C39.9253 15.9007 40.1988 16.544 40.1556 17.4019C40.1124 18.417 40.1556 19.4321 40.1556 20.533C41.3358 20.533 42.3865 20.5616 43.4515 20.533C44.2144 20.5044 44.7757 20.7617 45.1931 21.4194C45.4809 21.8912 45.8408 22.3345 46.215 22.8635C46.4453 22.5489 46.6468 22.3487 46.7763 22.1057C47.4096 20.8618 48.3739 20.3185 49.7844 20.5187C50.3313 20.5902 50.907 20.5187 51.4684 20.5187C51.4828 20.4472 51.4972 20.39 51.5116 20.3185C46.6612 17.0158 41.8108 13.7275 36.8164 10.339V10.3533ZM34.1681 10.3533C29.145 13.7704 24.309 17.0444 19.4874 20.3328C19.5018 20.4043 19.5162 20.4901 19.545 20.5616C20.5669 20.5616 21.7039 20.2899 22.5819 20.6331C23.4742 20.9762 24.1075 21.9484 24.8991 22.6776C25.0719 22.4345 25.3453 22.1343 25.5324 21.7912C26.0506 20.8189 26.8134 20.4186 27.936 20.5187C28.8716 20.5902 29.8215 20.533 30.8434 20.533C30.8434 19.3606 30.8722 18.274 30.8434 17.1874C30.8146 16.444 31.1025 15.9293 31.707 15.5432C32.3834 15.1143 33.0455 14.6568 33.6932 14.1707C33.9091 14.0134 34.1538 13.7561 34.1681 13.5273C34.2257 12.5408 34.1969 11.54 34.1969 10.3533H34.1681ZM23.1144 25.0366C22.8122 24.6077 22.4667 24.0358 22.0494 23.5497C21.8622 23.3353 21.488 23.1494 21.2002 23.1351C19.8185 23.0922 18.4367 23.1065 17.055 23.1351C16.8104 23.1351 16.4793 23.1923 16.3642 23.3496C15.5006 24.5362 14.6802 25.7658 13.831 26.9811L14.0181 27.1955C15.8748 27.1955 17.7603 27.0669 19.6026 27.2384C21.3873 27.3957 22.5387 26.8381 23.1288 25.0509L23.1144 25.0366ZM47.9277 25.1367C48.4747 26.8524 49.6693 27.4672 51.4252 27.1955C52.1592 27.0812 52.9221 27.1812 53.6705 27.1812H57.2543C56.5059 26.0089 55.8582 25.0366 55.2537 24.0501C54.8075 23.3067 54.203 22.9921 53.325 23.0922C52.7062 23.1637 52.0441 23.1923 51.4252 23.0922C49.6549 22.792 48.489 23.4639 47.9277 25.1367ZM54.9514 72.5895V79.3379H58.9671V72.5895H54.9514ZM12.0751 72.5895V79.3379H16.0763V72.5895H12.0751ZM54.7643 51.215C54.9083 52.3588 54.6924 53.6885 55.2681 54.3604C56.1173 55.347 57.2831 56.4764 58.9671 55.9046V51.215H54.7643ZM12.0607 51.2436V55.9331C14.2916 56.3192 17.0406 54.4462 16.0187 51.2436H12.0607ZM12.0607 37.2894V41.8789H16.2202C16.1051 40.7923 16.3786 39.4483 15.8172 38.8193C14.9393 37.847 13.7735 36.7033 12.0607 37.2752V37.2894ZM58.9671 37.3323C57.6573 36.9463 56.3619 37.2323 55.1673 38.8193C54.6348 39.5341 54.8939 40.8495 54.7931 41.8932H58.9671V37.3323ZM54.7787 63.2677H58.9527V58.6925C57.2111 58.1349 56.0453 59.2501 55.1673 60.2366C54.6204 60.8371 54.8939 62.1668 54.7787 63.2677ZM16.249 63.2677C16.1051 62.1382 16.3354 60.8228 15.7741 60.1794C14.9105 59.1929 13.7159 58.1063 12.0463 58.7068V63.2677H16.2634H16.249ZM12.0319 44.5382V48.5414H16.0475V44.5382H12.0319ZM58.9383 48.57V44.5668H54.9227V48.57H58.9383ZM33.4629 44.5382V48.5414H37.4929V44.5382H33.4629ZM54.9514 65.9413V69.9159H58.9527V65.9413H54.9514ZM37.5073 65.9699H33.4773V69.9302H37.5073V65.9699ZM16.0763 69.9445V65.9556H12.0319V69.9445H16.0763ZM37.4785 27.1812V23.1923H33.4773V27.1812H37.4785ZM16.1915 29.7834C15.0688 29.7834 14.1333 29.7834 13.1834 29.7834C13.0394 29.7834 12.7804 29.9549 12.7516 30.0836C12.4493 31.5419 12.1759 33.0145 11.9024 34.4443C13.8166 35.0305 14.9681 33.8724 15.8316 32.8859C16.3786 32.2568 16.0907 30.8985 16.1915 29.7834ZM59.0678 34.43C58.8087 33.0288 58.5497 31.6134 58.2618 30.198C58.233 30.0407 58.0315 29.8119 57.902 29.8119C56.9089 29.7834 55.9158 29.7977 54.7068 29.7977C54.8795 30.9986 54.7068 32.314 55.2681 33.0003C56.0885 33.9868 57.2399 35.0877 59.0678 34.4443V34.43ZM33.4197 29.8262C33.4197 30.7699 33.4197 31.6849 33.4197 32.5856C33.4197 32.7143 33.5061 32.8573 33.5924 32.9574C34.7439 34.2441 35.4779 34.3299 36.8596 33.3005C37.1331 33.1003 37.4785 32.7858 37.5073 32.4855C37.5936 31.6134 37.5361 30.7413 37.5361 29.8119H33.4053L33.4197 29.8262ZM37.5505 20.4901C37.5505 19.7895 37.4785 19.1176 37.5649 18.4885C37.7664 17.0587 36.4998 16.8729 35.7226 16.3296C35.5067 16.1866 34.8302 16.5726 34.4416 16.8157C34.053 17.0587 33.5205 17.4019 33.4629 17.7736C33.319 18.6457 33.4197 19.5751 33.4197 20.4901H37.5505ZM52.2312 48.6129V44.5096C51.4684 44.5096 50.7631 44.5096 50.0435 44.5096C49.7556 44.5096 49.3526 44.4524 49.2231 44.5954C48.7193 45.1816 48.2012 45.7963 47.9277 46.4826C47.827 46.7543 48.3163 47.3119 48.6042 47.6836C48.8633 48.0267 49.1799 48.5128 49.5253 48.5557C50.3889 48.6844 51.2813 48.5986 52.2168 48.5986L52.2312 48.6129ZM26.4536 46.7114C26.7558 47.1546 27.13 47.6979 27.5186 48.2269C27.6482 48.3842 27.8497 48.5843 28.0368 48.5986C28.9435 48.6415 29.8503 48.6129 30.757 48.6129V44.5811C28.8572 44.338 27.0725 44.2379 26.4536 46.7114ZM35.334 37.5754C34.8878 37.8899 34.3265 38.2474 33.8083 38.6477C33.65 38.7764 33.4485 38.9765 33.4485 39.1624C33.4053 40.0631 33.4341 40.9639 33.4341 41.8646H37.4785C37.7808 39.9487 37.7951 38.2188 35.334 37.5754ZM33.5636 51.215C32.9304 53.4597 33.4629 54.6321 35.5643 55.6329C36.0968 55.2612 36.6437 54.8894 37.1619 54.4748C37.3202 54.3461 37.5217 54.1317 37.5217 53.9601C37.5649 53.0594 37.5361 52.1587 37.5361 51.215H33.5493H33.5636ZM23.0856 46.3968C22.769 45.9393 22.4092 45.396 22.0062 44.867C21.8766 44.7098 21.6607 44.5239 21.488 44.5096C20.5813 44.4667 19.6745 44.4953 18.7678 44.4953V48.5128C20.7108 48.8417 22.4236 48.7988 23.0713 46.3968H23.0856ZM18.7534 65.8841V69.8587C21.4305 70.2877 21.891 70.0875 23.172 67.8857C22.7978 67.3424 22.4092 66.7705 21.9918 66.2272C21.8622 66.0699 21.632 65.8984 21.4449 65.8984C20.5669 65.8698 19.6745 65.8841 18.7534 65.8841ZM26.3672 67.9715C26.7558 68.5291 27.1156 69.0724 27.5186 69.5871C27.6482 69.7444 27.8641 69.9302 28.0368 69.9445C28.9435 69.9874 29.8503 69.9588 30.7714 69.9588V65.9699C28.0512 65.5838 27.7201 65.7268 26.3672 67.9715ZM52.26 65.9985C49.7988 65.4837 48.8633 65.9127 47.8558 68.0144C48.1868 68.5005 48.5178 69.0009 48.8777 69.4727C49.0216 69.6586 49.2375 69.9159 49.439 69.9302C50.3745 69.9731 51.3101 69.9588 52.26 69.9588V65.9985ZM40.1844 48.5843C41.71 48.5271 43.3652 49.1848 44.1424 47.2404C44.2719 46.9258 44.531 46.4683 44.4159 46.2968C43.9985 45.6534 43.5379 44.8098 42.9046 44.5811C42.113 44.2808 41.1055 44.5096 40.1844 44.5096V48.5843ZM40.2275 65.8984V69.9016C42.1274 70.1447 43.9121 70.2591 44.531 67.7856C44.2288 67.3424 43.8258 66.7562 43.394 66.1843C43.2932 66.0414 43.0773 65.9127 42.9046 65.8984C42.0266 65.8698 41.1343 65.8984 40.2132 65.8984H40.2275ZM37.5505 63.282C37.4497 61.795 38.1838 60.1652 36.2551 59.3931C35.9385 59.2644 35.4923 58.9356 35.3052 59.05C34.6431 59.4503 33.7508 59.8792 33.5205 60.5083C33.2182 61.3232 33.4485 62.3383 33.4485 63.282H37.5649H37.5505ZM30.8002 23.2066C28.0512 22.8349 27.5618 23.0636 26.3816 25.2225C26.7558 25.7515 27.1156 26.2948 27.5186 26.8095C27.6482 26.9668 27.8641 27.1669 28.0368 27.1669C28.9435 27.2098 29.8503 27.1812 30.8002 27.1812V23.1923V23.2066ZM40.2132 23.1351V27.1241C42.9478 27.4958 43.5811 27.1955 44.5742 25.0938C44.2144 24.5648 43.8402 24.0215 43.4372 23.4925C43.3076 23.3353 43.0773 23.1637 42.8902 23.1494C42.0123 23.1208 41.1199 23.1351 40.1988 23.1351H40.2132Z" fill="#4C89C6"/>
</svg>
