<svg width="36" height="34" viewBox="0 0 36 34" fill="none" xmlns="http://www.w3.org/2000/svg">
<path d="M0.0979575 31.7383L5.60578 16.3458C5.73958 16.0371 5.91904 15.8056 6.14417 15.6514C6.36929 15.4969 6.6195 15.4196 6.8948 15.4196C7.08781 15.4196 7.26342 15.4467 7.42165 15.5009C7.57987 15.5547 7.72973 15.6524 7.87122 15.7939L17.8678 25.7057C18.0093 25.8472 18.1071 26.0035 18.1613 26.1748C18.2152 26.3457 18.2421 26.5187 18.2421 26.6936C18.2421 26.9947 18.165 27.2578 18.0108 27.4829C17.8562 27.708 17.6246 27.8748 17.3159 27.9832L1.90028 33.5412C1.62498 33.6415 1.35804 33.6646 1.09947 33.6104C0.840897 33.5562 0.611258 33.4288 0.410554 33.2281C0.20985 33.0273 0.0824029 32.7977 0.0282129 32.5391C-0.0256427 32.2806 -0.00239454 32.0136 0.0979575 31.7383ZM35.4605 8.62676C35.329 8.78364 35.1604 8.86209 34.9547 8.86209C34.749 8.86209 34.5804 8.79652 34.449 8.6654L34.3486 8.56504C33.6615 7.87797 32.8485 7.53242 31.9095 7.52841C30.9703 7.52473 30.1532 7.87027 29.4584 8.56504L18.775 19.2485C18.6438 19.3796 18.4753 19.4517 18.2692 19.4648C18.0635 19.4775 17.8822 19.4054 17.7253 19.2485C17.5681 19.0916 17.4895 18.9102 17.4895 18.7041C17.4895 18.4984 17.5681 18.3171 17.7253 18.1602L28.3355 7.54948C29.2771 6.6336 30.4518 6.1673 31.8594 6.15058C33.2666 6.13385 34.4413 6.59631 35.3832 7.53794L35.4605 7.61521C35.5916 7.74667 35.6572 7.91527 35.6572 8.12099C35.6572 8.32671 35.5916 8.4953 35.4605 8.62676ZM11.1598 2.97193C11.3166 2.8408 11.4981 2.77523 11.7042 2.77523C11.9099 2.77523 12.0912 2.8408 12.2481 2.97193L12.9315 3.69396C14.0765 4.81322 14.6406 6.19306 14.6239 7.83348C14.6072 9.4739 14.0392 10.8537 12.9199 11.973L12.1864 12.7447C12.0552 12.8762 11.8803 12.9419 11.6615 12.9419C11.4428 12.9419 11.2549 12.8762 11.098 12.7447C10.9412 12.5878 10.8627 12.4065 10.8627 12.2008C10.8627 11.9947 10.9412 11.8133 11.098 11.6564L11.9049 10.8496C12.7769 9.9775 13.2008 8.95792 13.1763 7.79083C13.1519 6.62407 12.7281 5.62891 11.9049 4.80536L11.1598 4.06074C11.0286 3.92928 10.9565 3.75417 10.9435 3.5354C10.9308 3.31697 11.0029 3.12914 11.1598 2.97193ZM18.6746 0.197191C18.8315 0.0657302 19.0128 0 19.2185 0C19.4246 0 19.6061 0.0657302 19.7629 0.197191L21.9551 2.38938C22.8894 3.35677 23.3667 4.54879 23.3872 5.96543C23.4079 7.38173 22.9344 8.56086 21.9667 9.50283L15.5175 15.9911C15.3861 16.1222 15.211 16.1941 14.9922 16.2069C14.7738 16.2199 14.5859 16.148 14.4287 15.9911C14.2718 15.8339 14.1934 15.6524 14.1934 15.4467C14.1934 15.241 14.2718 15.0595 14.4287 14.9023L20.8553 8.47623C21.5423 7.81491 21.8839 6.97798 21.8799 5.96543C21.8762 4.95287 21.5308 4.10306 20.8437 3.41598L18.6746 1.28551C18.5435 1.15438 18.4714 0.979437 18.4584 0.76067C18.4456 0.541903 18.5177 0.354075 18.6746 0.197191ZM30.7169 22.6409C30.56 22.7981 30.385 22.8767 30.192 22.8767C29.999 22.8767 29.8241 22.7981 29.6672 22.6409L28.8759 21.8496C28.0035 20.9776 27.0012 20.5416 25.8689 20.5416C24.7369 20.5416 23.7218 20.9776 22.8237 21.8496L22.0941 22.5792C21.963 22.7107 21.7946 22.7827 21.5888 22.7955C21.3828 22.8085 21.2013 22.7364 21.0444 22.5792C20.8876 22.4481 20.8091 22.2797 20.8091 22.0739C20.8091 21.8679 20.8876 21.6864 21.0444 21.5295L21.7007 20.8732C22.8458 19.7282 24.2249 19.1455 25.8382 19.1251C27.4516 19.1043 28.8307 19.6665 29.9758 20.8115L30.7169 21.5526C30.848 21.6837 30.9201 21.8587 30.9331 22.0774C30.9458 22.2962 30.8737 22.484 30.7169 22.6409Z" fill="#0094CA"/>
</svg>
