<svg width="78" height="91" viewBox="0 0 78 91" fill="none" xmlns="http://www.w3.org/2000/svg">
<path d="M1.47812 91C0.347512 90.3712 -0.102301 89.4281 0.0192699 88.1343C0.10437 87.2275 0.0192699 86.2964 0.0435841 85.3775C0.0678983 83.9265 0.845953 83.1406 2.31696 83.1164C4.49308 83.0922 6.66921 83.1164 8.83317 83.1164C9.14926 83.1164 9.4775 83.1164 9.84221 83.1164V65.475C7.27706 65.0639 5.80605 63.6371 5.74527 61.5211C5.67232 59.2238 6.94882 57.8695 9.89084 57.1803C9.89084 55.7535 9.89084 54.3146 9.89084 52.8637C9.89084 51.0258 9.87868 49.1879 9.89084 47.35C9.903 45.6693 11.0093 44.5931 12.6991 44.569C13.465 44.5569 14.2309 44.569 15.0819 44.569C15.1062 44.1578 15.1306 43.8435 15.1306 43.5291C15.1306 40.7722 15.1306 38.0154 15.1306 35.2707C15.1306 32.7556 16.0302 31.8609 18.5589 31.8125C18.7291 31.8125 18.9114 31.8004 19.2032 31.7762C19.2032 31.1475 19.191 30.5308 19.2032 29.9262C19.2275 28.9468 19.7259 28.3785 20.5526 28.3785C21.3793 28.3785 21.8656 28.9227 21.8777 29.9142C21.8777 30.5066 21.8777 31.087 21.8777 31.74H34.278V26.2988C33.0866 26.19 31.5913 26.589 30.9469 25.3315C30.4363 24.34 30.4364 23.0946 30.1811 21.8492H21.8777C21.8777 22.3328 21.8899 22.8286 21.8777 23.3122C21.8413 24.2433 21.3671 24.7632 20.5526 24.7753C19.7624 24.7753 19.2518 24.2433 19.2032 23.3243C19.1789 22.8528 19.191 22.3812 19.2032 21.8975C19.2518 20.2531 20.2973 19.1891 21.9385 19.1044C22.2546 19.0923 22.5829 19.1044 22.9962 19.1044C22.9962 18.645 22.9962 18.2943 22.9962 17.9437C22.9962 13.5907 22.984 9.23783 22.9962 4.88492C23.0084 1.9588 24.8441 0.0120833 27.5186 -0.0120995C29.9622 -0.0362823 31.8466 1.64442 32.0654 4.08689C32.1262 4.81238 32.0654 5.54995 32.0654 6.33589H45.9245C45.9245 5.61041 45.8637 4.87283 45.9245 4.14735C46.192 1.08822 49.0732 -0.749676 51.9909 0.253912C53.9117 0.906848 54.9815 2.55128 54.9937 4.9212C55.0059 9.24993 54.9937 13.5666 54.9937 17.8953C54.9937 18.2459 54.9937 18.5966 54.9937 19.0198C55.2733 19.0561 55.4921 19.1044 55.7231 19.1165C57.8263 19.2012 58.7867 20.1806 58.7867 22.2966C58.7867 25.138 58.7867 27.9795 58.7867 30.821C58.7867 31.1112 58.7867 31.4014 58.7867 31.8246C59.2122 31.8246 59.5891 31.8246 59.966 31.8246C61.7409 31.8609 62.835 32.937 62.8472 34.7386C62.8715 37.6648 62.8472 40.603 62.8472 43.5291C62.8472 43.8435 62.8715 44.1578 62.8958 44.569C63.6739 44.569 64.3911 44.569 65.0963 44.569C67.0171 44.581 68.0869 45.633 68.0869 47.5314C68.0869 50.7235 68.0869 53.9277 68.0869 57.2166C69.5579 57.3375 70.883 57.8453 71.576 59.1633C71.9772 59.9371 72.196 60.9045 72.1839 61.775C72.1352 63.7338 70.6034 65.0639 68.1355 65.4629V83.1043C69.6916 83.1043 71.1991 83.1043 72.7188 83.1043C73.7035 83.1043 74.6882 83.0922 75.6608 83.1043C77.1318 83.1285 77.9099 83.9144 77.9342 85.3654C77.9463 86.2843 77.8734 87.2033 77.9585 88.1222C78.0679 89.4039 77.6424 90.3591 76.4996 90.9879H1.47812V91ZM51.9423 83.068V65.4629H26.0476V83.0438H32.3693C32.3693 80.8432 32.345 78.7151 32.3693 76.587C32.3815 75.5834 32.3693 74.5557 32.5638 73.5884C33.2203 70.2753 36.3447 68.0747 39.6758 68.4858C43.2256 68.9211 45.6935 71.6658 45.6206 75.0998C45.6084 75.9341 45.0978 76.5145 44.3684 76.5628C43.6511 76.6112 43.0554 76.055 42.946 75.2449C42.9217 75.0635 42.9339 74.8942 42.9217 74.7129C42.7393 72.5848 41.0495 71.0612 38.9099 71.0975C36.8067 71.1338 35.1655 72.6694 35.0561 74.7612C35.0074 75.7044 35.0317 76.6596 35.0317 77.6027C35.0317 79.4043 35.0317 81.2059 35.0317 83.0559H42.946C42.946 82.5118 42.9217 82.0161 42.946 81.5203C42.9946 80.6255 43.5417 80.0935 44.3441 80.1177C45.11 80.1419 45.5841 80.6618 45.6206 81.5324C45.6327 82.0282 45.6206 82.5239 45.6206 83.0559H51.9301L51.9423 83.068ZM65.3637 83.068V65.4508H54.7506V83.068H65.3637ZM12.6262 65.4508V83.068H23.2515V65.4508H12.6262ZM65.3759 57.2408V47.3137H50.7752C50.7752 47.9062 50.7752 48.4382 50.7752 48.9702C50.7752 50.8686 49.912 51.715 47.9912 51.7271C46.8484 51.7271 45.6935 51.7271 44.5751 51.7271V57.2408H65.3759ZM12.5897 57.2166H33.427V51.7271C32.1627 51.7271 30.9469 51.7271 29.7312 51.7271C28.1508 51.7029 27.239 50.8081 27.2147 49.2483C27.2026 48.6075 27.2147 47.9666 27.2147 47.3258H12.5897V57.2287V57.2166ZM2.75462 88.2794H75.2353V85.837H2.75462V88.2794ZM38.995 62.7544C48.4897 62.7544 57.9965 62.7544 67.4912 62.7544C67.783 62.7544 68.0869 62.7786 68.3787 62.7303C69.0716 62.6093 69.5093 62.2103 69.5701 61.4969C69.6309 60.7473 69.2905 60.2273 68.5489 60.0339C68.2449 59.9492 67.9045 59.9492 67.5763 59.9492C48.5261 59.9492 29.4638 59.9492 10.4136 59.9492C10.0854 59.9492 9.75711 59.9492 9.44103 60.0339C8.7116 60.2273 8.35904 60.7352 8.41983 61.4848C8.48062 62.1982 8.91827 62.6093 9.61123 62.7303C9.903 62.7786 10.2069 62.7544 10.4987 62.7544C19.9934 62.7544 29.5003 62.7544 38.995 62.7544ZM17.8659 34.5452V44.5327H33.427V38.9102C29.792 39.4785 29.5854 37.1448 29.7799 34.5452H17.8659ZM44.5751 38.9585V44.5327H60.1362V34.5573H48.4289C48.21 35.7301 48.21 36.9272 47.7602 37.9308C47.201 39.1883 45.8151 38.9464 44.5751 38.9585ZM56.0757 31.8125V21.8613H47.8332C47.5779 23.1067 47.5657 24.3763 47.043 25.392C46.4108 26.6495 44.9033 26.2142 43.7362 26.3593V31.8246H56.0757V31.8125ZM52.2827 9.1411H46.508C46.2649 11.8254 45.2194 13.3046 43.3715 13.5787V19.0561H52.2827V9.12901V9.1411ZM25.7194 9.10483V19.0319H34.6062V13.494C31.2266 13.6754 31.5305 11.245 31.5305 9.10483H25.7194ZM41.7911 39.0069H36.2231V44.5327H41.7911V39.0069ZM48.0642 47.3258H29.9622V49.0186H48.0642V47.3258ZM41.7911 57.2287V51.7996H36.211V57.2287H41.7911ZM32.5152 36.2138H45.4625V34.5452H32.5152V36.2138ZM37.0741 26.3351V31.7883H40.9522V26.3351H37.0741ZM44.8911 21.8613H33.1595V23.5662H44.8911V21.8613ZM40.6118 13.5424H37.4267V19.0198H40.6118V13.5424ZM43.7241 9.12901H34.2902V10.7734H43.7241V9.12901ZM52.3799 6.36008C52.2219 5.13884 52.7568 3.80879 51.4438 2.9503C50.763 2.50292 50.0093 2.5271 49.365 3.02285C48.1857 3.91761 48.6477 5.17512 48.6112 6.36008H52.3799ZM29.4516 6.36008C29.3422 5.13884 29.8407 3.84506 28.6006 2.98657C27.932 2.5271 27.1782 2.5271 26.5218 2.98657C25.2939 3.85715 25.7802 5.13884 25.6708 6.34799H29.4516V6.36008Z" fill="#4C89C6"/>
</svg>
