<svg width="74" height="88" viewBox="0 0 74 88" fill="none" xmlns="http://www.w3.org/2000/svg">
<path d="M38.383 0C38.9074 0.127824 39.4318 0.241446 39.9421 0.397676C42.4791 1.13622 44.5485 2.55649 45.9942 4.77211C46.3769 5.36862 46.7879 5.52486 47.454 5.51065C51.1392 5.48225 54.8243 5.51065 58.5236 5.51065C59.8984 5.51065 60.3236 5.92253 60.3236 7.30019C60.3236 10.9361 60.3236 14.572 60.3236 18.2079V19.2731C61.5567 19.2731 62.7473 19.2731 63.9379 19.2731C65.4261 19.2731 65.8229 19.6708 65.8229 21.162C65.8229 22.7954 65.8229 24.4145 65.8229 26.1614H68.3317C70.316 26.1614 71.3081 27.1698 71.3081 29.1866V32.9929C72.3995 33.2201 74.0719 32.6378 74.0011 34.4558C73.9302 36.0607 72.4136 35.521 71.3081 35.7056C71.3081 36.0749 71.3081 36.4442 71.3081 36.7992C71.3081 53.1892 71.3081 69.5649 71.3081 85.9548C71.3081 87.6875 70.9963 88.0142 69.2813 88.0142C62.3929 88.0142 55.5046 88.0142 48.6163 88.0142C47.0997 88.0142 46.7454 87.6591 46.7454 86.1536C46.7454 74.9761 46.7595 63.8128 46.7454 52.6353C46.7454 48.3318 44.8036 45.1078 40.8492 43.3751C34.4711 40.5771 27.2426 45.2356 27.2851 52.7347C27.356 63.7276 27.2993 74.7347 27.2993 85.7276C27.2993 86.0116 27.2993 86.2957 27.2993 86.5797C27.2568 87.5313 26.8032 88 25.8536 88C18.6534 88 11.4533 88 4.23895 88C3.23263 88 2.76491 87.5171 2.73656 86.5371C2.73656 86.2815 2.73656 86.0258 2.73656 85.7702C2.73656 69.4655 2.73656 53.1749 2.73656 36.8702V35.6346C2.19797 35.6346 1.71607 35.663 1.24834 35.6346C0.511316 35.5778 -0.0272782 35.0381 0.00106884 34.3706C0.0294159 33.6462 0.440448 33.1917 1.1633 33.1065C1.6452 33.0497 2.1271 33.1065 2.73656 33.1065C2.73656 31.6436 2.73656 30.2518 2.73656 28.8599C2.73656 28.4906 2.73656 28.1214 2.73656 27.7379C2.76491 26.6869 3.21846 26.204 4.2673 26.1898C5.54292 26.1614 6.83271 26.1898 8.23589 26.1898C8.23589 24.7695 8.23589 23.4061 8.23589 22.0426C8.23589 21.6449 8.23589 21.2473 8.23589 20.8354C8.26424 19.7986 8.73196 19.3157 9.7808 19.3015C11.0564 19.2873 12.3462 19.3015 13.7352 19.3015C13.7352 18.9322 13.7352 18.6198 13.7352 18.3215C13.7352 14.6572 13.7352 10.9929 13.7352 7.3286C13.7352 5.96514 14.1604 5.55326 15.5353 5.53906C19.2771 5.53906 23.0189 5.53906 26.7749 5.53906C27.2993 5.53906 27.6395 5.41123 27.9513 4.94254C29.6804 2.32924 32.1041 0.752744 35.1939 0.184635C35.3499 0.15623 35.5058 0.0710136 35.6617 0.0284054C36.583 0.0284054 37.4901 0.0284054 38.4113 0.0284054L38.383 0ZM68.686 28.7889C68.36 28.7747 68.0907 28.7463 67.8072 28.7463C65.6103 28.7463 63.3993 28.7463 61.2024 28.7463C60.4653 28.7463 59.7141 28.7605 58.9771 28.7321C58.2543 28.7037 57.8007 28.2918 57.7582 27.5533C57.7015 26.8147 58.1125 26.3602 58.8212 26.2182C59.1472 26.1472 59.5015 26.1756 59.8417 26.1614C60.9472 26.1614 62.0528 26.1614 63.1583 26.1614V21.9432H10.858V26.1614H12.0344C25.3575 26.1614 38.6665 26.1614 51.9896 26.1614C52.3297 26.1614 52.6841 26.1472 53.0101 26.204C53.7187 26.3318 54.1298 26.7721 54.144 27.5107C54.144 28.1924 53.6195 28.6895 52.8683 28.7463C52.5565 28.7747 52.2447 28.7463 51.9187 28.7463C36.7672 28.7463 21.6299 28.7463 6.47837 28.7463C6.10986 28.7463 5.75552 28.7463 5.37284 28.7463V32.9929H68.7002V28.7889H68.686ZM21.8425 35.6914V49.5959C22.6787 49.5959 23.4724 49.5533 24.252 49.5959C24.8473 49.6385 25.074 49.4112 25.2299 48.8431C26.8032 43.3467 32.0191 39.6398 37.6318 39.9806C43.0036 40.3073 47.284 43.7301 48.8572 48.9425C48.9281 49.184 49.1407 49.5391 49.2966 49.5533C50.2604 49.6101 51.21 49.5817 52.188 49.5817V35.6914H21.8283H21.8425ZM16.3431 19.2163H57.6732V8.15236H16.3431V19.2163ZM68.686 75.7431V60.5178H54.881V75.7431H68.686ZM19.1779 60.5035H5.34449V75.7289H19.1779V60.5035ZM5.35866 35.6914V49.5249H19.1779V35.6914H5.35866ZM54.8952 35.6914V49.5533H68.6718V35.6914H54.8952ZM68.7002 78.4416H54.8668V85.3725H68.7002V78.4416ZM5.31614 85.3725H19.1495V78.4416H5.31614V85.3725ZM5.31614 57.8192H19.1353V52.266H5.33032V57.8192H5.31614ZM68.6718 52.2376H54.881V57.805H68.6718V52.2376ZM21.8567 60.4893V75.7147H24.6488V60.4893H21.8567ZM49.3816 60.4467V75.7147H52.1738V60.4467H49.3816ZM43.1736 5.48225C40.1122 1.50549 33.4364 1.83215 30.8994 5.48225H43.1736ZM21.8425 78.4132V85.3583H24.6488V78.4132H21.8425ZM52.1455 85.3867V78.4132H49.3533V85.3867H52.1455ZM24.6347 52.266H21.8283V57.8334H24.6347V52.266ZM52.1738 52.2518H49.3675V57.8192H52.1738V52.2518Z" fill="#4C89C6"/>
</svg>
