<svg width="90" height="69" viewBox="0 0 90 69" fill="none" xmlns="http://www.w3.org/2000/svg">
<path d="M37.5134 34.7704C38.7857 31.7698 40.4505 29.3558 42.8733 27.5691C48.531 23.382 54.5812 22.8091 60.9156 25.8779C62.5534 26.6689 62.7158 27.4463 61.6601 28.9193C70.0519 39.7486 73.165 52.1463 72.1498 65.7578H86.3482C86.3482 64.4349 86.3482 63.1528 86.3482 61.8571C86.267 51.1234 83.3298 41.317 76.7247 32.7928C75.1682 30.7879 73.2868 29.0421 71.5137 27.2145C70.9181 26.6007 70.5933 25.9733 71.0399 25.1686C71.5407 24.2685 72.6236 24.1321 73.4492 25.005C75.6554 27.3372 77.997 29.6013 79.9055 32.1654C85.0218 39.0394 87.8235 46.8817 88.8793 55.3923C89.353 59.293 89.3936 63.1937 89.0552 67.1081C88.9605 68.2265 88.4732 68.7038 87.3769 68.7584C87.1603 68.7584 86.9437 68.7584 86.7407 68.7584C58.6011 68.7584 30.4616 68.7584 2.30846 68.7584C1.91594 68.7584 1.50989 68.7584 1.1309 68.6766C0.332329 68.4993 -0.0601898 67.9401 0.0074859 67.1217C0.0751616 66.3443 0.535357 65.8942 1.30686 65.8124C1.67231 65.7715 2.03776 65.7851 2.40321 65.7851C24.2489 65.7851 46.0811 65.7851 67.9269 65.7851H69.145C69.6458 60.9297 69.4428 56.2107 68.5901 51.3825H67.5343C61.5653 51.3825 55.6099 51.3825 49.6409 51.3825C49.3702 51.3825 49.0859 51.3961 48.8152 51.3825C47.8813 51.3143 47.2858 50.7006 47.2993 49.855C47.3264 49.0093 47.9354 48.4365 48.8964 48.4365C51.4004 48.4229 53.918 48.4365 56.422 48.4365C59.914 48.4365 63.3926 48.4365 66.8846 48.4365C67.2095 48.4365 67.5343 48.4365 67.9404 48.4365C67.223 45.3678 66.1944 42.5173 64.9085 39.7486C62.8106 35.2478 60.0629 31.197 56.5573 27.6782C56.3002 27.4191 55.9076 27.2145 55.5557 27.1463C48.7746 25.7688 41.8311 30.1877 39.8685 37.1299C39.5978 38.0983 39.2053 38.9166 38.2037 39.2849C36.7419 39.8304 35.2801 38.9575 34.9146 37.2663C33.8318 32.2063 34.671 27.5009 37.7435 23.3274C41.0731 18.8129 45.6074 16.5353 51.1974 16.4261C51.5899 16.4261 51.9825 16.4261 52.5645 16.4261C52.2396 16.1261 52.0366 15.9215 51.82 15.7442C45.5262 10.8069 36.593 10.6296 30.0826 15.3078C29.839 15.4851 29.5953 15.676 29.3382 15.8533C28.3636 16.4943 27.1996 16.4534 26.3604 15.7442C25.5077 15.0213 25.2099 13.903 25.7107 12.8119C29.0133 5.65146 34.5356 1.28703 42.2913 0.223204C50.2094 -0.854265 56.7468 1.99625 61.8496 8.18829C61.9308 8.28376 62.012 8.36559 62.1067 8.46107C62.1203 8.4747 62.1609 8.4747 62.215 8.48834C62.797 7.75185 63.3384 6.97443 63.9611 6.26521C69.9977 -0.608765 80.3521 -1.3589 87.3363 4.53308C88.4461 5.47416 88.7574 6.60618 88.216 7.71093C87.6882 8.81567 86.6054 9.26576 85.1706 8.97934C77.5368 7.47907 70.4579 12.089 68.7796 19.7131C68.5495 20.7497 68.5224 21.8544 68.4818 22.9182C68.4412 24.2412 67.9675 24.9368 67.0065 24.9368C66.0455 24.9368 65.5582 24.2548 65.5311 22.9046C65.4093 13.3165 73.0025 5.63783 82.5177 5.70602C82.9103 5.70602 83.2892 5.70602 83.9119 5.70602C82.1929 4.56036 80.5281 3.96025 78.7414 3.70111C70.9317 2.55545 64.0693 7.53362 62.8647 15.3623C62.594 17.1081 62.9189 18.963 63.1083 20.7633C63.1625 21.3089 63.6904 21.7999 64.0152 22.3045C64.1776 22.5636 64.4077 22.7818 64.5837 23.0273C65.2198 23.8866 65.1792 24.7868 64.4889 25.3187C63.7716 25.8779 62.9459 25.7006 62.2692 24.8413C60.3742 22.4272 57.965 20.7497 55.0279 19.8904C45.7834 17.1626 36.4576 24.9231 37.4998 34.7431L37.5134 34.7704ZM29.3111 12.2117C29.6089 12.0754 29.7171 12.0481 29.7983 11.9935C39.2323 6.31977 51.0485 8.92479 57.4913 17.2854C57.965 17.8991 58.8312 18.1856 59.3997 18.5538C59.7516 16.4398 60.0223 14.4622 60.4419 12.5254C60.5773 11.8844 60.5502 11.4343 60.1848 10.9161C54.2834 2.28267 42.2507 0.373231 34.0213 6.76985C32.1399 8.22921 30.5969 9.96134 29.3111 12.2254V12.2117Z" fill="#4C89C6"/>
</svg>
