<svg width="42" height="27" viewBox="0 0 42 27" fill="none" xmlns="http://www.w3.org/2000/svg">
<path d="M21.4678 11.4055C22.1572 10.6181 22.6339 9.75873 22.8978 8.82746C23.1614 7.89586 23.2932 6.87679 23.2932 5.77024C23.2932 4.66403 23.1614 3.65164 22.8978 2.73308C22.6339 1.8142 22.1572 0.961203 21.4678 0.174109C23.238 -0.0858024 24.7568 0.318116 26.0243 1.38586C27.2914 2.45361 27.9249 3.92159 27.9249 5.78981C27.9249 7.65803 27.2914 9.11949 26.0243 10.1742C24.7568 11.2292 23.238 11.6397 21.4678 11.4055ZM31.1402 26.1036C31.2045 25.8333 31.2668 25.5705 31.3274 25.3153C31.3879 25.0597 31.4182 24.7821 31.4182 24.4824V23.3168C31.4182 22.0784 31.1635 20.9344 30.654 19.8847C30.1442 18.8354 29.2178 17.9762 27.8748 17.3072C31.1402 17.7859 33.4876 18.5218 34.917 19.5149C36.3463 20.5081 37.061 21.7754 37.061 23.3168V24.4824C37.061 24.9243 36.9063 25.3049 36.5969 25.6244C36.2874 25.9438 35.9018 26.1036 35.4398 26.1036H31.1402ZM35.355 9.13203H31.6495C31.4307 9.13203 31.2474 9.0571 31.0996 8.90724C30.9517 8.75705 30.8778 8.57106 30.8778 8.34929C30.8778 8.12751 30.9517 7.9452 31.0996 7.80237C31.2474 7.65987 31.4307 7.58862 31.6495 7.58862H35.355V3.88312C35.355 3.66435 35.4299 3.48104 35.5798 3.33319C35.73 3.185 35.916 3.11091 36.1378 3.11091C36.3595 3.11091 36.5418 3.185 36.6847 3.33319C36.8275 3.48104 36.8989 3.66435 36.8989 3.88312V7.58862H40.6039C40.8227 7.58862 41.0062 7.66355 41.1544 7.8134C41.3022 7.9636 41.3761 8.14958 41.3761 8.37136C41.3761 8.59314 41.3022 8.77545 41.1544 8.91828C41.0062 9.06078 40.8227 9.13203 40.6039 9.13203H36.8989V12.8375C36.8989 13.0563 36.8238 13.2396 36.6736 13.3875C36.5238 13.5356 36.338 13.6097 36.1162 13.6097C35.8944 13.6097 35.7121 13.5356 35.5693 13.3875C35.4264 13.2396 35.355 13.0563 35.355 12.8375V9.13203ZM13.9334 11.5791C12.2649 11.5791 10.886 11.0282 9.79686 9.92632C8.70771 8.82445 8.16313 7.43909 8.16313 5.77024C8.16313 4.10172 8.70771 2.72288 9.79686 1.63373C10.886 0.544577 12.2649 0 13.9334 0C15.6022 0 16.9876 0.544577 18.0894 1.63373C19.1913 2.72288 19.7422 4.10172 19.7422 5.77024C19.7422 7.43909 19.1913 8.82445 18.0894 9.92632C16.9876 11.0282 15.6022 11.5791 13.9334 11.5791ZM0 24.4824V23.1999C0 22.3643 0.245193 21.5855 0.73558 20.8637C1.22563 20.1422 1.89916 19.5857 2.75617 19.1943C4.80435 18.3042 6.72191 17.6379 8.50885 17.1953C10.2958 16.7528 12.104 16.5315 13.9334 16.5315C15.7631 16.5315 17.5631 16.7528 19.3333 17.1953C21.1035 17.6379 23.0256 18.3042 25.0995 19.1943C25.9308 19.5857 26.5998 20.1422 27.1066 20.8637C27.6137 21.5855 27.8672 22.3643 27.8672 23.1999V24.4824C27.8672 24.9243 27.7075 25.3049 27.3881 25.6244C27.0686 25.9438 26.6879 26.1036 26.2461 26.1036H1.62119C1.1793 26.1036 0.798634 25.9438 0.479181 25.6244C0.159727 25.3049 0 24.9243 0 24.4824Z" fill="#0094CA"/>
</svg>
