<svg width="77" height="92" viewBox="0 0 77 92" fill="none" xmlns="http://www.w3.org/2000/svg">
<path d="M75.4108 20.0835C76.6093 20.07 76.9729 19.7317 76.9863 18.5678C76.9998 15.8882 76.9998 13.2086 76.9863 10.529C76.9729 9.3651 76.6093 9.02677 75.4108 9.01324C74.7913 8.9997 74.1719 8.9997 73.5659 8.9997C72.731 5.25095 70.5225 3.05854 66.9405 2.27361C66.6981 1.39394 67.2368 -3.03483e-06 65.7285 -3.03483e-06C64.2203 -3.03483e-06 64.7724 1.40747 64.5166 2.27361C60.8942 3.07208 58.6857 5.31862 57.8777 8.9997C57.1909 8.9997 56.558 9.01324 55.9251 8.9997C54.9555 8.98617 54.4708 9.43277 54.4708 10.4342C54.4708 13.1815 54.4708 15.9288 54.4708 18.6761C54.4708 19.6911 54.9825 20.1106 55.9386 20.0835C56.558 20.07 57.1775 20.0835 57.8104 20.0835V29.0291H56.1675C54.7266 29.0562 54.4708 29.3133 54.4708 30.7614C54.4708 32.4531 54.4708 34.1312 54.4708 35.8499H22.5019C22.5019 34.0094 22.4884 32.2365 22.5154 30.4772C22.5154 29.4757 22.0575 29.0156 21.0745 29.0291C20.455 29.0427 19.8221 29.0291 19.2161 29.0291V20.0835H20.7513C22.2191 20.07 22.5019 19.7858 22.5019 18.2836C22.5019 16.0912 22.5154 13.9123 22.5019 11.7199C22.5019 9.74404 23.0271 8.81023 19.8625 9.01324C19.2835 9.05383 19.0141 8.8779 18.8795 8.25537C18.489 6.46896 17.5598 4.93968 16.0516 3.91115C14.9608 3.15328 13.695 2.66607 12.3887 2.01647C12.2541 1.35334 12.7254 0.0541305 11.3114 -3.03483e-06C9.72242 -0.0406032 10.288 1.43454 10.0725 2.24654C6.53092 3.28861 4.57832 4.89908 3.81074 7.72756C3.50102 8.8779 2.9893 9.17564 1.9524 9.01324C1.77734 8.98617 1.58881 9.01324 1.40028 8.9997C0.471113 8.98617 -0.000205628 9.43277 -0.000205628 10.3666V18.7437C-0.000205628 19.6775 0.511512 20.0971 1.41375 20.0835H3.28556V29.0291C2.61225 29.0291 2.01973 29.0427 1.42722 29.0291C0.430714 29.0156 -0.0136719 29.4893 -0.000205628 30.4772C0.0132606 33.1974 0.0132606 35.9041 -0.0136719 38.6243C-0.0136719 39.6122 0.430714 40.0859 1.40028 40.113H3.28556V49.0315C2.61225 49.0315 2.00627 49.045 1.41375 49.0315C0.498045 49.0179 -0.000205628 49.4375 -0.000205628 50.3848V58.7484C-0.000205628 59.6823 0.484579 60.1288 1.40028 60.1153C2.0332 60.1018 2.65265 60.1153 3.37982 60.1153V90.1595C3.37982 91.7158 3.64915 92 5.21123 92H71.7076C73.3504 92 73.5928 91.7564 73.5928 90.1053V60.1153C74.32 60.1153 74.926 60.1018 75.5185 60.1153C76.4881 60.1288 76.9729 59.6822 76.9729 58.6943V50.4389C76.9729 49.4375 76.4611 49.0044 75.505 49.0315C74.8856 49.045 74.2661 49.0315 73.6602 49.0315V40.0994C74.4008 40.0994 75.0741 40.1265 75.7474 40.0994C76.5419 40.0588 76.9729 39.6258 76.9729 38.8002V30.3148C76.9594 29.4893 76.5285 29.0697 75.707 29.0562C75.0203 29.0427 74.3335 29.0562 73.6602 29.0562V20.0971C74.2796 20.0971 74.8317 20.1106 75.3973 20.0971L75.4108 20.0835ZM65.7959 4.47955C68.3679 4.46602 70.9939 6.64489 71.0881 8.94557H60.3555C60.6652 6.42836 63.0892 4.49308 65.7959 4.47955ZM53.178 38.2183H54.4169C54.2418 40.9656 56.356 39.9506 57.7835 40.2483V44.6602H53.178V38.2183ZM54.4842 58.2342H51.8448C51.8448 56.3801 51.9256 54.5802 51.8179 52.7802C51.7102 51.0479 50.3097 49.7081 48.6129 49.5051C46.9297 49.3021 45.2598 50.3036 44.7212 51.9276C44.5192 52.5231 44.4923 53.1862 44.4788 53.8223C44.4384 55.2704 44.4788 56.732 44.4788 58.2477H41.9202C41.9202 56.6508 41.9337 55.1215 41.9202 53.5787C41.9068 51.1427 40.412 49.4916 38.2305 49.4916C36.0489 49.4916 34.5273 51.1562 34.5003 53.5652C34.4869 55.108 34.5003 56.6372 34.5003 58.2342H31.9821V55.744C31.9821 51.2645 30.9452 49.5051 28.3058 49.4916C25.6126 49.4645 24.5622 51.2374 24.5622 55.8117V58.2477H22.5288V51.0073C22.5288 49.1397 22.4346 49.0315 20.5493 49.0315H19.2431V47.0691H57.8104V49.0315C57.2044 49.0315 56.585 49.0585 55.9655 49.0315C54.9151 48.9638 54.4708 49.4239 54.4842 50.4931C54.5112 53.0509 54.4842 55.6087 54.4842 58.2342ZM49.596 58.2477H46.7681C46.7681 56.4748 46.6738 54.729 46.8219 52.9968C46.8623 52.5502 47.6299 51.9276 48.1551 51.8058C48.9227 51.6434 49.5421 52.2118 49.5825 53.0374C49.6364 54.7561 49.596 56.4613 49.596 58.2477ZM39.6444 58.2748H36.803C36.803 56.4748 36.7088 54.6749 36.8704 52.902C36.9108 52.4825 37.7457 51.9006 38.2843 51.8194C39.0654 51.684 39.6175 52.293 39.6444 53.1321C39.6714 54.8102 39.6444 56.4884 39.6444 58.2748ZM29.7198 58.2477H26.8246C26.8246 56.4884 26.7572 54.729 26.8515 52.9832C26.8919 52.1848 27.5113 51.7111 28.3462 51.7652C29.2081 51.8329 29.6929 52.4013 29.7063 53.2674C29.7333 54.8914 29.7198 56.5019 29.7198 58.2477ZM46.4718 38.2048H50.7945V44.6602H46.4718V38.2048ZM39.6848 38.2318H44.0479V44.6602H39.6848V38.2318ZM32.9652 38.2589H37.3282V44.6737H32.9652V38.2589ZM26.1782 38.2589H30.5412V44.6873H26.1782V38.2589ZM22.5423 38.2318H23.7947V44.6873H19.2027V40.2889C20.4954 39.8423 22.7443 41.0603 22.5423 38.2318ZM11.2037 4.47955C13.9508 4.41188 16.5363 6.71256 16.6306 8.94557H5.89801C6.16734 6.48249 8.55086 4.53368 11.2037 4.47955ZM2.35639 17.7693V11.341H20.2126V17.7693H2.35639ZM16.8191 20.1647V28.9073H12.4695V20.1647H16.8191ZM10.0591 20.1647V28.9073H5.70948V20.1647H10.0591ZM2.32946 37.7446V31.3839H20.2261V37.7446H2.32946ZM16.8191 40.2754V48.9773H12.4426V40.2754H16.8191ZM10.0725 40.2754V48.9773H5.69602V40.2754H10.0725ZM2.35639 57.8011V51.3727H20.2126V57.8011H2.35639ZM10.0591 89.6587H5.70948V60.1289H10.0591V89.6587ZM16.8326 89.6587H12.4695V60.183H16.8326V89.6587ZM46.3775 89.7129H30.622C30.5816 89.4151 30.5143 89.1309 30.5143 88.8467C30.5143 84.0559 30.4739 79.2786 30.5278 74.4878C30.5816 69.5887 34.2041 66.0565 38.8769 66.2459C42.607 66.3948 46.1621 69.3451 46.3237 73.0126C46.5526 78.5343 46.3775 84.0694 46.3775 89.7129ZM57.7969 89.6587H48.7341V88.3595C48.7341 83.7988 48.7611 79.238 48.7341 74.6772C48.6937 69.6022 45.9062 65.7587 41.3546 64.3919C35.214 62.5378 28.6694 66.9632 28.3597 73.378C28.1308 78.3042 28.2789 83.2439 28.252 88.1836V89.6858H19.2161V60.6296H57.7969V89.6587ZM64.53 89.6993H60.167V60.2236H64.53V89.6993ZM71.3036 89.6587H66.9405V60.183H71.3036V89.6587ZM74.6432 51.3321V57.7876H56.8274V51.3321H74.6432ZM60.1535 48.9909V40.2889H64.53V48.9909H60.1535ZM66.927 49.0044V40.2618H71.2766V49.0044H66.927ZM74.6971 31.3975V37.7717H56.8139V31.3975H74.6971ZM60.167 28.8803V20.1512H64.5435V28.8803H60.167ZM66.927 28.9209V20.1783H71.2766V28.9209H66.927ZM56.7735 17.7558V11.341H74.6432V17.7558H56.7735Z" fill="#4C89C6"/>
</svg>
