<svg width="33" height="40" viewBox="0 0 33 40" fill="none" xmlns="http://www.w3.org/2000/svg">
<path d="M21.057 18.2043C21.623 18.2043 22.1042 18.0062 22.5004 17.6099C22.8966 17.2137 23.0947 16.7326 23.0947 16.1665C23.0947 15.6004 22.8966 15.1193 22.5004 14.7231C22.1042 14.3268 21.623 14.1287 21.057 14.1287C20.4909 14.1287 20.0098 14.3268 19.6135 14.7231C19.2173 15.1193 19.0192 15.6004 19.0192 16.1665C19.0192 16.7326 19.2173 17.2137 19.6135 17.6099C20.0098 18.0062 20.4909 18.2043 21.057 18.2043ZM11.5472 18.2043C12.1133 18.2043 12.5944 18.0062 12.9907 17.6099C13.3869 17.2137 13.585 16.7326 13.585 16.1665C13.585 15.6004 13.3869 15.1193 12.9907 14.7231C12.5944 14.3268 12.1133 14.1287 11.5472 14.1287C10.9812 14.1287 10.5 14.3268 10.1038 14.7231C9.70757 15.1193 9.50945 15.6004 9.50945 16.1665C9.50945 16.7326 9.70757 17.2137 10.1038 17.6099C10.5 18.0062 10.9812 18.2043 11.5472 18.2043ZM16.3021 27.0347C17.8418 27.0347 19.2399 26.5989 20.4966 25.7272C21.7532 24.8554 22.6645 23.7063 23.2306 22.2799H9.37359C9.93965 23.7063 10.851 24.8554 12.1076 25.7272C13.3643 26.5989 14.7624 27.0347 16.3021 27.0347ZM16.3021 33.1481C14.4228 33.1481 12.6567 32.7915 11.0038 32.0783C9.35095 31.3651 7.91317 30.3971 6.6905 29.1744C5.46782 27.9517 4.49987 26.514 3.78664 24.8611C3.07341 23.2082 2.7168 21.4421 2.7168 19.5628C2.7168 17.6835 3.07341 15.9174 3.78664 14.2646C4.49987 12.6117 5.46782 11.1739 6.6905 9.95122C7.91317 8.72855 9.35095 7.76059 11.0038 7.04737C12.6567 6.33414 14.4228 5.97752 16.3021 5.97752C18.1814 5.97752 19.9475 6.33414 21.6004 7.04737C23.2532 7.76059 24.691 8.72855 25.9137 9.95122C27.1364 11.1739 28.1043 12.6117 28.8176 14.2646C29.5308 15.9174 29.8874 17.6835 29.8874 19.5628C29.8874 21.4421 29.5308 23.2082 28.8176 24.8611C28.1043 26.514 27.1364 27.9517 25.9137 29.1744C24.691 30.3971 23.2532 31.3651 21.6004 32.0783C19.9475 32.7915 18.1814 33.1481 16.3021 33.1481ZM16.3021 30.4311C19.3361 30.4311 21.906 29.3782 24.0118 27.2725C26.1175 25.1668 27.1703 22.5969 27.1703 19.5628C27.1703 16.5288 26.1175 13.9589 24.0118 11.8532C21.906 9.74744 19.3361 8.69458 16.3021 8.69458C13.268 8.69458 10.6982 9.74744 8.59244 11.8532C6.48672 13.9589 5.43386 16.5288 5.43386 19.5628C5.43386 22.5969 6.48672 25.1668 8.59244 27.2725C10.6982 29.3782 13.268 30.4311 16.3021 30.4311Z" fill="#0094CA"/>
</svg>
