<svg width="89" height="58" viewBox="0 0 89 58" fill="none" xmlns="http://www.w3.org/2000/svg">
<path d="M88.9688 39.4274C88.5595 40.1208 87.9456 40.3235 87.1486 40.3128C83.9065 40.2808 80.6645 40.3021 77.3578 40.3021V48.4735C78.758 48.7615 79.0165 49.0709 79.0165 50.5003C79.0165 51.3858 79.0165 52.2818 79.0165 53.1672C79.0165 54.3833 78.5641 55.0234 77.7025 55.0447C76.8193 55.0661 76.3561 54.4047 76.3561 53.1352C76.3561 52.5165 76.3561 51.8871 76.3561 51.2151H69.3227C69.3227 52.6445 69.3227 54.0313 69.3227 55.4288C69.3227 55.7488 69.355 56.0688 69.2796 56.3675C69.1073 57.0609 68.6226 57.4663 67.8902 57.4023C67.2116 57.3489 66.7269 56.9436 66.7161 56.2395C66.6838 54.0847 66.6731 51.9405 66.7161 49.7856C66.7377 48.7829 67.524 48.5695 68.3856 48.4948V40.3448H20.5951V48.4415C22.0815 48.7829 22.2538 48.9855 22.2538 50.5323C22.2538 52.3138 22.2538 54.0953 22.2538 55.8661C22.2538 56.8262 21.7799 57.3809 20.9936 57.4023C20.1858 57.4343 19.6365 56.8262 19.6257 55.8555C19.615 54.3087 19.6257 52.7725 19.6257 51.1831H12.5923C12.5923 51.9618 12.6031 52.6979 12.5923 53.4339C12.5708 54.426 12.0538 55.0234 11.2675 55.0234C10.4812 55.0234 9.95346 54.4047 9.94269 53.4233C9.93192 52.4205 9.94269 51.4178 9.94269 50.415C9.94269 49.0495 10.2335 48.7189 11.6337 48.4628V40.2808C11.3106 40.2808 11.009 40.2808 10.7074 40.2808C7.67003 40.2808 4.62187 40.2808 1.58447 40.2808C0.787422 40.2808 0.216564 40.0034 0.0334587 39.2034C-0.160418 38.35 0.507379 37.6779 1.54139 37.6779C4.57878 37.6779 7.62695 37.6779 10.6643 37.6779C10.9767 37.6779 11.2891 37.6779 11.6337 37.6779V34.9897C11.2998 34.9897 10.9982 34.9897 10.6967 34.9897C7.65926 34.9897 4.61109 34.9897 1.5737 34.9897C0.582775 34.9897 -0.0203958 34.4563 0.0119169 33.6669C0.0334587 32.8988 0.615088 32.3975 1.56293 32.3868C2.9416 32.3655 4.33105 32.3868 5.76358 32.3868V20.7698C4.92345 21.4205 4.15872 22.0179 3.39398 22.5939C2.97392 22.9033 2.55385 23.202 2.10147 23.4687C1.40136 23.8847 0.679713 23.7567 0.259648 23.17C-0.19273 22.5513 -0.0419376 21.8259 0.658171 21.3032C1.37982 20.7698 2.13379 20.2897 2.82312 19.7244C8.39168 15.084 11.386 9.17412 11.6337 1.93083C11.6984 0.362698 12.043 0 13.6048 0C15.2851 0 16.9653 0 18.6456 0C20.132 0 20.4659 0.341363 20.5413 1.80282C20.929 10.2195 24.6342 16.8334 31.7969 21.3778C46.2299 30.5306 65.8222 21.5379 68.1379 4.74707C68.2887 3.66965 68.3426 2.58156 68.418 1.49346C68.4933 0.437371 68.9242 0.0106676 70.012 0C71.8108 0 73.6095 0 75.3975 0C76.8839 0 77.2716 0.384033 77.3039 1.89883C77.4117 6.77392 78.9304 11.1796 81.7846 15.1373C83.4541 17.4522 85.4898 19.383 87.8594 20.9938C88.2795 21.2818 88.6134 21.6872 88.9796 22.0392V22.9033C88.0749 23.9274 87.6225 23.9914 86.4808 23.2127C85.7914 22.7433 85.1236 22.2419 84.4666 21.7405C84.0681 21.4418 83.6911 21.1218 83.2172 20.7485V32.3975C84.5205 32.3975 85.7914 32.4295 87.0516 32.3868C87.8594 32.3548 88.5272 32.5468 88.9904 33.2402V34.1043C88.6134 34.8297 88.0102 35.043 87.2024 35.0323C84.2296 35.0003 81.2461 35.0217 78.2733 35.0323C77.9717 35.0323 77.6702 35.0644 77.347 35.075V37.7206H78.3164C81.2676 37.7206 84.2081 37.7419 87.1593 37.7099C87.9564 37.7099 88.5595 37.9126 88.9796 38.5953V39.4594L88.9688 39.4274ZM11.6553 32.3654C11.6553 31.9601 11.6553 31.6507 11.6553 31.3414C11.6553 28.0984 11.6553 24.8555 11.6553 21.6125C11.6553 21.3245 11.6445 21.0365 11.6984 20.7591C11.8599 20.0551 12.3338 19.639 13.0663 19.6924C13.7448 19.735 14.1864 20.1404 14.2726 20.8338C14.3157 21.1752 14.3049 21.5165 14.3049 21.8685C14.3049 30.3919 14.3049 38.9047 14.3049 47.4281V48.5268H17.8162V2.65623H14.3049C14.3049 3.01893 14.3049 3.32829 14.3049 3.63765C14.3049 6.59257 14.3049 9.54749 14.3049 12.5024C14.3049 13.6758 14.3049 14.8599 14.3049 16.0334C14.3049 16.2574 14.3049 16.4921 14.2726 16.7161C14.1649 17.4628 13.6371 17.9322 12.9262 17.9109C12.2046 17.8895 11.6768 17.3668 11.6553 16.5454C11.623 15.4467 11.6553 14.3372 11.6553 13.0891C10.6643 14.5719 9.75959 15.884 8.91946 17.2281C8.67173 17.6122 8.46708 18.1029 8.46708 18.5509C8.43477 22.882 8.44554 27.213 8.44554 31.544C8.44554 31.8214 8.46708 32.0881 8.47785 32.3654H11.6445H11.6553ZM74.5789 48.5375V2.6669H71.1322V48.5268H74.5789V48.5375ZM20.5413 37.6566H68.3426V35.0964H20.5413V37.6566ZM23.7725 32.3548V31.4587C23.7725 27.2983 23.751 23.1487 23.7941 18.9883C23.7941 18.1669 23.5679 17.5375 23.0832 16.8761C22.3185 15.8414 21.683 14.7106 20.9936 13.6225C20.8859 13.4518 20.7567 13.2918 20.5736 13.0358V32.3654H23.7833L23.7725 32.3548ZM68.3856 13.0678C67.4055 14.5292 66.4684 15.884 65.5852 17.2815C65.359 17.6442 65.1759 18.1029 65.1759 18.5296C65.1436 22.8606 65.1544 27.1917 65.1544 31.5227V32.3334H68.3749V13.0678H68.3856ZM80.4921 32.3548V31.3307C80.4921 27.2877 80.4706 23.2447 80.5137 19.2017C80.5137 18.2736 80.309 17.5162 79.7274 16.7588C78.8657 15.6387 78.1656 14.4012 77.3578 13.1638V32.3548H80.4921ZM26.4545 20.7698V32.3441H30.2135C30.2135 29.4745 30.2135 26.637 30.2028 23.81C30.2028 23.65 30.052 23.4473 29.912 23.3407C28.7918 22.4873 27.6501 21.6659 26.4545 20.7805V20.7698ZM62.4616 32.3441V20.7164C61.7292 21.3032 61.1368 21.9432 60.4152 22.3166C58.9072 23.074 58.5733 24.2154 58.6703 25.7942C58.8103 27.9597 58.7026 30.1359 58.7026 32.3548H62.4616V32.3441ZM36.6653 32.3441C36.6653 30.4773 36.6653 28.6531 36.6653 26.829C36.6653 26.6903 36.5468 26.4663 36.4284 26.4236C35.2866 25.9756 34.1342 25.5489 32.917 25.1008V32.3548H36.6761L36.6653 32.3441ZM56.0314 25.1008C54.8035 25.5489 53.6726 25.9649 52.5524 26.4023C52.4232 26.4556 52.2831 26.6476 52.2831 26.7863C52.2616 28.6318 52.2724 30.488 52.2724 32.3441H56.0314V25.1008ZM39.3904 27.2023V32.3334H43.074V27.6504C41.8246 27.501 40.6398 27.3517 39.3904 27.2023ZM45.8529 32.3441H49.5366V27.2023C48.2656 27.3517 47.07 27.501 45.8529 27.6504V32.3441Z" fill="#4C89C6"/>
</svg>
