<svg width="94" height="70" viewBox="0 0 94 70" fill="none" xmlns="http://www.w3.org/2000/svg">
<path d="M0 31.6908C0.584563 30.4042 1.83392 30.7571 2.94574 30.6319C2.94574 28.8215 2.94574 27.0681 2.94574 25.3033C2.94574 23.8118 3.40422 23.3563 4.92867 23.3563C11.7256 23.3563 18.5112 23.3563 25.3081 23.3563C25.6635 23.3563 26.0188 23.3563 26.4773 23.3563C26.4773 21.8876 26.4887 20.5327 26.4543 19.1664C26.4543 19.0183 26.2022 18.802 26.0188 18.7337C25.3311 18.4604 24.9872 17.9708 25.0674 17.2535C25.1591 16.5135 25.6749 16.1491 26.3856 16.0808C26.867 16.0353 27.3484 16.0808 27.9559 16.0808C27.9559 15.6595 27.9559 15.3407 27.9559 15.0105C27.9559 12.574 27.9673 10.1488 27.9559 7.71223C27.9444 5.75387 28.678 4.23955 30.4775 3.29453C30.6953 3.18067 30.8443 2.80494 30.8901 2.52029C30.9818 2.01932 30.9245 1.48418 31.0277 0.983208C31.1767 0.300059 31.7154 -0.0415154 32.3802 0.00402784C33.045 0.0495711 33.6525 0.448075 33.5952 1.14261C33.4691 2.54306 34.0193 3.37423 35.2113 4.10292C36.1397 4.67221 36.5409 5.75386 36.5753 6.86967C36.6097 7.92856 36.5753 8.98744 36.5753 10.126H57.4247C57.4247 9.37455 57.4476 8.60032 57.4247 7.83747C57.3445 5.79941 58.078 4.23955 59.9693 3.27176C60.1756 3.16929 60.3131 2.81632 60.359 2.56584C60.4277 2.08763 60.359 1.58666 60.4277 1.10845C60.5194 0.402531 61.0467 -0.0529012 61.6886 0.0381853C62.17 0.1065 62.5711 0.618862 63.0067 0.937665C63.0411 0.960436 63.064 1.05152 63.0525 1.10845C62.8348 2.57722 63.5913 3.40839 64.7489 4.20539C65.8264 4.95686 66.0785 6.26623 66.0785 7.56421C66.0785 10.0235 66.0785 12.4943 66.0785 14.9536C66.0785 15.2838 66.0785 15.614 66.0785 16.0011C66.4797 16.0239 66.8121 16.0353 67.133 16.0466C68.2563 16.0694 68.8065 16.4224 68.9555 17.208C69.093 17.9708 68.7033 18.4832 67.603 18.8817V23.3563C67.9698 23.3563 68.3251 23.3563 68.6804 23.3563C75.4086 23.3563 82.1483 23.3563 88.8765 23.3563C90.7333 23.3563 91.1001 23.7207 91.1001 25.531C91.1001 27.2047 91.1001 28.8671 91.1001 30.6319C91.6503 30.6546 92.1661 30.6546 92.6589 30.7116C93.6676 30.8254 94.1949 31.52 93.9656 32.4991C93.5186 34.3892 93.0601 36.2792 92.5214 38.1465C92.4068 38.545 91.9139 38.841 91.6044 39.194C91.421 39.4103 91.123 39.6494 91.123 39.8885C91.1001 48.9175 91.1116 57.9464 91.123 66.9754C91.123 67.0323 91.1574 67.0893 91.2033 67.2714C91.6388 67.2714 92.1202 67.2487 92.5902 67.2714C93.4498 67.317 94.0344 67.8749 94.0344 68.6263C94.0344 69.3323 93.4957 69.8902 92.6819 69.9813C92.4068 70.0154 92.1317 69.9926 91.8566 69.9926C61.9637 69.9926 32.0593 69.9926 2.16632 69.9926C1.29521 69.9926 0.527253 69.8788 0.022924 69.0818V68.1709C0.653335 66.9299 1.90269 67.3511 2.89989 67.2031V39.2737C1.96 39.1485 1.60468 38.545 1.40983 37.7366C0.962809 36.0288 0.469943 34.3209 0 32.6016C0 32.2942 0 31.9982 0 31.6908ZM55.9003 67.2259C55.9232 66.9412 55.9461 66.7705 55.9461 66.5883C55.9461 60.235 55.9461 53.8817 55.9461 47.5284C55.9461 47.1527 55.8315 46.7428 55.6596 46.4012C53.9288 42.9172 51.155 40.64 47.4413 39.4787C47.1547 39.3876 46.7765 39.4217 46.4785 39.5128C43.315 40.4806 40.8277 42.3707 39.074 45.1488C38.5926 45.9116 38.1227 46.8567 38.1112 47.7334C38.031 53.9386 38.0654 60.1325 38.0654 66.3378C38.0654 66.6338 38.0883 66.9185 38.1112 67.2373H55.9003V67.2259ZM67.5915 36.5411C68.0156 36.5411 68.348 36.5411 68.6804 36.5411C72.5087 36.5411 76.337 36.5411 80.1539 36.5411C81.5637 36.5411 82.24 36.9965 82.2285 37.9074C82.2285 38.8183 81.5408 39.2737 80.131 39.2737C76.3026 39.2737 72.4743 39.2737 68.6575 39.2737C68.3022 39.2737 67.9583 39.2737 67.603 39.2737V67.2031H70.6633C70.6633 66.8274 70.6633 66.4972 70.6633 66.1784C70.6633 61.3167 70.6748 56.4435 70.6633 51.5818C70.6633 49.7145 71.0874 47.9725 72.4056 46.6403C73.4027 45.6384 74.6292 44.8528 75.8098 44.0558C76.0963 43.8622 76.6694 43.8736 77.0247 44.0216C80.3029 45.3423 82.24 48.2457 82.24 51.7981C82.24 56.6029 82.24 61.4077 82.24 66.2125V67.1917H88.2575V39.2737C87.8105 39.2737 87.4093 39.2851 87.0196 39.2737C85.9995 39.2282 85.4035 38.7158 85.392 37.9188C85.392 37.1104 85.9881 36.5867 87.0082 36.5525C87.8334 36.5297 88.6587 36.5753 89.484 36.5297C89.7247 36.5183 90.0915 36.3362 90.1602 36.1426C90.4353 35.2887 90.6187 34.412 90.8594 33.4783H67.5915V36.5525V36.5411ZM5.73101 67.1917H11.7256C11.7371 66.9185 11.76 66.7135 11.76 66.4972C11.76 61.6013 11.76 56.7054 11.7715 51.8095C11.7715 51.0011 11.8632 50.1699 12.0466 49.3729C12.6999 46.6745 14.786 45.2285 17.044 43.9874C17.3306 43.828 17.8693 43.8622 18.1788 44.033C21.2964 45.7067 23.4513 47.9725 23.3596 51.8323C23.2564 56.6029 23.3367 61.3736 23.3367 66.1556C23.3367 66.5086 23.3367 66.8615 23.3367 67.2031H26.4085V39.342H5.73101V67.2031V67.1917ZM58.7543 39.3193V67.1917H64.7031V39.3193H58.7543ZM35.2457 67.2031V39.3534H29.2969V67.2031H35.2457ZM36.6441 16.0466C37.0567 16.0466 37.3891 16.0466 37.7215 16.0466C40.9996 16.0466 44.2663 16.0466 47.5444 16.0466C47.7851 16.0466 48.0373 16.0353 48.278 16.0466C49.2523 16.115 49.8025 16.6159 49.8139 17.4016C49.8139 18.2441 49.2523 18.7679 48.2322 18.7679C45.2062 18.7792 42.1802 18.7679 39.1428 18.7679C38.8218 18.7679 38.4895 18.7679 38.1341 18.7679V23.2653H55.8659V18.7337C55.2584 18.7337 54.7082 18.7906 54.1695 18.7223C53.2296 18.6085 52.6336 17.561 53.1723 16.8323C53.4818 16.4224 54.1466 16.1491 54.6967 16.0694C55.5564 15.9442 56.439 16.0353 57.3101 16.0353V12.9725H36.6326V16.0353L36.6441 16.0466ZM67.5686 30.6091H88.2575V26.1572H67.5686V30.6091ZM26.4199 26.1686H5.74247V30.6205H26.4314V26.1686H26.4199ZM55.8544 41.7217V33.4897H38.1112V41.6533C38.3863 41.4142 38.5697 41.2776 38.7302 41.1068C40.3807 39.3876 42.3751 38.1921 44.5529 37.2243C46.2263 36.4728 47.8081 36.4956 49.4815 37.2243C51.8656 38.2718 53.9746 39.6608 55.8659 41.6989L55.8544 41.7217ZM26.4199 33.4783H3.16352C3.4386 34.5486 3.67931 35.5278 3.92001 36.4842H26.4314V33.4783H26.4199ZM20.5629 67.2145C20.5629 65.6888 20.5858 64.2656 20.5629 62.8424C20.5285 60.9409 19.4281 59.6999 17.8807 58.7776C17.7317 58.6865 17.4452 58.6524 17.3076 58.7435C16.0927 59.4494 14.9465 60.3489 14.7402 61.7835C14.488 63.5597 14.5224 65.3814 14.4307 67.2259H20.5629V67.2145ZM73.4601 67.1803H79.4662C79.4662 65.7116 79.512 64.3111 79.4662 62.9221C79.3974 61.0548 78.4117 59.734 76.8184 58.8345C76.635 58.7321 76.3256 58.6638 76.1766 58.7548C74.7782 59.5632 73.6205 60.6335 73.4945 62.33C73.3684 63.924 73.4715 65.5408 73.4715 67.1917L73.4601 67.1803ZM64.7145 26.1572H58.7658V30.6091H64.7145V26.1572ZM35.2457 26.1572H29.2625V30.6091H35.2457V26.1572ZM64.7145 18.8362H58.7658V23.288H64.7145V18.8362ZM35.2457 18.8362H29.2969V23.288H35.2457V18.8362ZM44.7592 26.1231V30.6205H49.2179V26.1231H44.7592ZM35.2342 33.4783H29.2625V36.4614H35.2342V33.4783ZM64.726 33.4783H58.7314V36.4614H64.726V33.4783ZM14.5682 51.0922H20.5399C20.4368 48.9858 19.1874 47.7903 17.5369 46.8794C15.8749 47.8131 14.637 49.0086 14.5682 51.0922ZM79.4088 51.1263C79.3171 48.9972 78.0793 47.8017 76.4402 46.9022C74.3541 48.018 73.2996 49.5551 73.5518 51.1263H79.4088ZM55.9232 30.6205C55.9232 29.22 55.9346 27.8537 55.9003 26.4988C55.9003 26.3622 55.6022 26.1117 55.4418 26.1003C54.3529 26.0662 53.2525 26.0775 52.1178 26.0775V30.6091H55.9232V30.6205ZM41.8707 26.0889C40.7245 26.0889 39.6242 26.0775 38.5353 26.1117C38.3748 26.1117 38.0768 26.3622 38.0768 26.4988C38.0424 27.8537 38.0539 29.2086 38.0539 30.5977H41.8707V26.0889ZM63.2359 15.9897V11.5379H60.2214V15.9897H63.2359ZM33.7786 11.5151H30.7641V15.9897H33.7786V11.5151ZM14.5568 57.2633C15.2903 56.7737 15.9093 56.3866 16.5053 55.9653C17.2503 55.4302 17.9495 55.453 18.6831 55.9881C19.2562 56.4094 19.8637 56.7851 20.5399 57.2291V53.9728H14.5682V57.2633H14.5568ZM73.483 53.95V57.2291C74.1478 56.7851 74.7438 56.4207 75.294 56.0109C76.0849 55.4188 76.8414 55.4302 77.6322 56.0222C78.1939 56.4435 78.8014 56.8079 79.4318 57.2178V53.9386H73.483V53.95ZM63.3162 8.68002C63.2474 7.59837 63.5683 6.5281 62.4909 5.86772C61.9063 5.51476 61.3103 5.56031 60.7831 5.98158C59.8661 6.72166 60.2214 7.71223 60.1985 8.68002H63.3162ZM33.8473 8.68002C33.7786 7.60975 34.1568 6.5281 33.0679 5.86772C32.4948 5.51476 31.8759 5.56031 31.3601 5.98158C30.466 6.71027 30.7526 7.71223 30.7297 8.68002H33.8473Z" fill="#4C89C6"/>
</svg>
