<svg width="45" height="33" viewBox="0 0 45 33" fill="none" xmlns="http://www.w3.org/2000/svg">
<path d="M25.088 19.0669C23.4155 19.0669 21.9938 18.4815 20.823 17.3107C19.6523 16.1399 19.0669 14.7183 19.0669 13.0458C19.0669 11.3732 19.6523 9.95157 20.823 8.7808C21.9938 7.61003 23.4155 7.02464 25.088 7.02464C26.7605 7.02464 28.1822 7.61003 29.353 8.7808C30.5237 9.95157 31.1091 11.3732 31.1091 13.0458C31.1091 14.7183 30.5237 16.1399 29.353 17.3107C28.1822 18.4815 26.7605 19.0669 25.088 19.0669ZM9.03168 26.0915C8.20378 26.0915 7.49512 25.7967 6.90572 25.2069C6.31599 24.6175 6.02112 23.9089 6.02112 23.081V3.01056C6.02112 2.18266 6.31599 1.47384 6.90572 0.884101C7.49512 0.2947 8.20378 0 9.03168 0H41.1443C41.9722 0 42.681 0.2947 43.2708 0.884101C43.8602 1.47384 44.1549 2.18266 44.1549 3.01056V23.081C44.1549 23.9089 43.8602 24.6175 43.2708 25.2069C42.681 25.7967 41.9722 26.0915 41.1443 26.0915H9.03168ZM14.0493 23.081H36.1267C36.1267 21.676 36.6118 20.4885 37.5818 19.5185C38.5519 18.5484 39.7394 18.0634 41.1443 18.0634V8.02816C39.7394 8.02816 38.5519 7.54313 37.5818 6.57306C36.6118 5.60299 36.1267 4.41549 36.1267 3.01056H14.0493C14.0493 4.41549 13.5642 5.60299 12.5942 6.57306C11.6241 7.54313 10.4366 8.02816 9.03168 8.02816V18.0634C10.4366 18.0634 11.6241 18.5484 12.5942 19.5185C13.5642 20.4885 14.0493 21.676 14.0493 23.081ZM36.6285 32.1126H3.01056C2.18266 32.1126 1.474 31.8178 0.884603 31.228C0.294868 30.6386 0 29.93 0 29.1021V7.5264C0 7.0999 0.145176 6.74232 0.435528 6.45364C0.725545 6.16529 1.08514 6.02112 1.51431 6.02112C1.94315 6.02112 2.29973 6.16529 2.58406 6.45364C2.86839 6.74232 3.01056 7.0999 3.01056 7.5264V29.1021H36.6285C37.055 29.1021 37.4126 29.2473 37.7012 29.5376C37.9896 29.8276 38.1338 30.1872 38.1338 30.6164C38.1338 31.0452 37.9896 31.4018 37.7012 31.6861C37.4126 31.9705 37.055 32.1126 36.6285 32.1126Z" fill="#0094CA"/>
</svg>
