<svg width="33" height="40" viewBox="0 0 33 40" fill="none" xmlns="http://www.w3.org/2000/svg">
<path d="M14.8759 24.3854L22.5516 16.7097L20.6157 14.7738L14.8759 20.5136L12.023 17.6607L10.087 19.5966L14.8759 24.3854ZM16.3023 33.1479C13.1551 32.3555 10.5569 30.5498 8.50776 27.7308C6.45864 24.9119 5.43408 21.7816 5.43408 18.34V10.0529L16.3023 5.97735L27.1706 10.0529V18.34C27.1706 21.7816 26.146 24.9119 24.0969 27.7308C22.0478 30.5498 19.4496 32.3555 16.3023 33.1479ZM16.3023 30.295C18.6571 29.5478 20.6043 28.0535 22.144 25.8119C23.6837 23.5703 24.4535 21.0797 24.4535 18.34V11.9209L16.3023 8.86422L8.15114 11.9209V18.34C8.15114 21.0797 8.92098 23.5703 10.4606 25.8119C12.0003 28.0535 13.9475 29.5478 16.3023 30.295Z" fill="#0094CA"/>
</svg>
