<svg width="62" height="59" viewBox="0 0 62 59" fill="none" xmlns="http://www.w3.org/2000/svg">
<path d="M27.6719 31.4421L23.5031 27.3452C22.976 26.8181 22.3177 26.5546 21.528 26.5546C20.7383 26.5546 20.055 26.8421 19.4781 27.4171C18.951 27.9441 18.6875 28.615 18.6875 29.4296C18.6875 30.2441 18.951 30.915 19.4781 31.4421L25.6594 37.6233C26.2344 38.1983 26.9052 38.4858 27.6719 38.4858C28.4385 38.4858 29.1094 38.1983 29.6844 37.6233L41.9031 25.4046C42.4781 24.8296 42.7532 24.1587 42.7282 23.3921C42.7033 22.6254 42.4283 21.9546 41.9031 21.3796C41.3281 20.8046 40.6458 20.5056 39.8561 20.4826C39.0665 20.4596 38.3832 20.7346 37.8062 21.3077L27.6719 31.4421ZM19.6219 57.4608L15.4531 50.4171L7.54687 48.6921C6.82812 48.5483 6.25312 48.1774 5.82187 47.5794C5.39062 46.9814 5.22292 46.3221 5.31875 45.6014L6.10937 37.4796L0.71875 31.2983C0.239583 30.7712 0 30.1483 0 29.4296C0 28.7108 0.239583 28.0879 0.71875 27.5608L6.10937 21.3796L5.31875 13.2577C5.22292 12.5389 5.39062 11.8796 5.82187 11.2797C6.25312 10.6798 6.82812 10.3089 7.54687 10.1671L15.4531 8.44206L19.6219 1.39831C20.0052 0.77539 20.5323 0.35564 21.2031 0.139056C21.874 -0.077527 22.5448 -0.0411103 23.2156 0.248306L30.6906 3.41081L38.1656 0.248306C38.8365 -0.0391937 39.5073 -0.0756103 40.1781 0.139056C40.849 0.353723 41.376 0.773473 41.7594 1.39831L45.9281 8.44206L53.8344 10.1671C54.5531 10.3108 55.1281 10.6826 55.5594 11.2826C55.9906 11.8825 56.1583 12.5408 56.0625 13.2577L55.2719 21.3796L60.6625 27.5608C61.1417 28.0879 61.3812 28.7108 61.3812 29.4296C61.3812 30.1483 61.1417 30.7712 60.6625 31.2983L55.2719 37.4796L56.0625 45.6014C56.1583 46.3202 55.9906 46.9795 55.5594 47.5794C55.1281 48.1793 54.5531 48.5502 53.8344 48.6921L45.9281 50.4171L41.7594 57.4608C41.376 58.0837 40.849 58.5035 40.1781 58.7201C39.5073 58.9366 38.8365 58.9002 38.1656 58.6108L30.6906 55.4483L23.2156 58.6108C22.5448 58.8983 21.874 58.9347 21.2031 58.7201C20.5323 58.5054 20.0052 58.0856 19.6219 57.4608Z" fill="#0094CA"/>
</svg>
